<svg width="179" height="167" viewBox="0 0 179 167" fill="none" xmlns="http://www.w3.org/2000/svg">
<path fill-rule="evenodd" clip-rule="evenodd" d="M113.81 21.5892V34.5883C113.81 36.2865 115.187 37.6633 116.885 37.6633C118.583 37.6633 119.96 36.2865 119.96 34.5883V21.5892C119.96 19.8909 118.583 18.5142 116.885 18.5142C115.187 18.5142 113.81 19.8909 113.81 21.5892ZM116.577 81.18C127.616 81.18 136.565 72.2313 136.565 61.1925C136.565 50.1537 127.616 41.205 116.577 41.205C105.539 41.205 96.59 50.1537 96.59 61.1925C96.59 72.2313 105.539 81.18 116.577 81.18ZM76.9742 63.345H89.9733C91.6715 63.345 93.0483 61.9683 93.0483 60.27C93.0483 58.5717 91.6715 57.195 89.9733 57.195H76.9742C75.276 57.195 73.8992 58.5717 73.8992 60.27C73.8992 61.9683 75.276 63.345 76.9742 63.345ZM156.245 63.345H143.246C141.548 63.345 140.171 61.9683 140.171 60.27C140.171 58.5717 141.548 57.195 143.246 57.195H156.245C157.943 57.195 159.32 58.5717 159.32 60.27C159.32 61.9683 157.943 63.345 156.245 63.345ZM113.81 100.86V87.861C113.81 86.1627 115.187 84.786 116.885 84.786C118.583 84.786 119.96 86.1627 119.96 87.861V100.86C119.96 102.558 118.583 103.935 116.885 103.935C115.187 103.935 113.81 102.558 113.81 100.86ZM86.6168 35.1457L95.8085 44.3374C97.0094 45.5382 98.9564 45.5382 100.157 44.3374C101.358 43.1365 101.358 41.1895 100.157 39.9887L90.9655 30.797C89.7647 29.5961 87.8177 29.5961 86.6168 30.797C85.4159 31.9978 85.4159 33.9448 86.6168 35.1457ZM142.67 91.1986L133.478 82.0069C132.277 80.806 132.277 78.859 133.478 77.6582C134.679 76.4573 136.626 76.4573 137.827 77.6582L147.018 86.8499C148.219 88.0507 148.219 89.9977 147.018 91.1986C145.818 92.3995 143.871 92.3995 142.67 91.1986ZM142.009 31.2318L132.818 40.4235C131.617 41.6244 131.617 43.5714 132.818 44.7722C134.018 45.9731 135.965 45.9731 137.166 44.7722L146.358 35.5805C147.559 34.3797 147.559 32.4327 146.358 31.2318C145.157 30.031 143.21 30.031 142.009 31.2318ZM85.9564 87.2847L95.1481 78.093C96.349 76.8922 98.296 76.8922 99.4968 78.093C100.698 79.2939 100.698 81.2409 99.4968 82.4418L90.3051 91.6335C89.1043 92.8343 87.1573 92.8343 85.9564 91.6335C84.7555 90.4326 84.7555 88.4856 85.9564 87.2847Z" fill="url(#paint0_linear)"/>
<path fill-rule="evenodd" clip-rule="evenodd" d="M34.29 87.0386C14.8988 89.8477 0 106.585 0 126.812C0 149.007 17.9391 167 40.0682 167H122.648C149.904 167 172 144.838 172 117.5C172 90.1619 149.904 68 122.648 68C118.759 68 114.975 68.4511 111.346 69.304C103.874 57.6914 90.8351 50 76 50C54.4827 50 36.7446 66.1809 34.29 87.0386Z" fill="url(#paint1_linear)"/>
<defs>
<linearGradient id="paint0_linear" x1="73.8992" y1="18.5142" x2="73.8992" y2="103.935" gradientUnits="userSpaceOnUse">
<stop stop-color="#FFFCC9"/>
<stop offset="1" stop-color="#FFF799"/>
</linearGradient>
<linearGradient id="paint1_linear" x1="0" y1="50" x2="0" y2="167" gradientUnits="userSpaceOnUse">
<stop stop-color="#A9D9FF"/>
<stop offset="1" stop-color="#7AC5FF"/>
</linearGradient>
</defs>
</svg>
