<svg width="140" height="140" viewBox="0 0 140 140" fill="none" xmlns="http://www.w3.org/2000/svg">
<path fill-rule="evenodd" clip-rule="evenodd" d="M65 5.10443V26.2411C65 29.0025 67.2385 31.2411 70 31.2411C72.7615 31.2411 75 29.0025 75 26.2411V5.10443C75 2.34301 72.7615 0.104431 70 0.104431C67.2385 0.104431 65 2.34301 65 5.10443ZM69.5 102C87.4492 102 102 87.4493 102 69.5C102 51.5507 87.4492 37 69.5 37C51.5508 37 37 51.5507 37 69.5C37 87.4493 51.5508 102 69.5 102ZM5.10437 73H26.241C29.0024 73 31.241 70.7614 31.241 68C31.241 65.2386 29.0024 63 26.241 63H5.10437C2.3429 63 0.10437 65.2386 0.10437 68C0.10437 70.7614 2.3429 73 5.10437 73ZM134 73H112.863C110.102 73 107.863 70.7614 107.863 68C107.863 65.2386 110.102 63 112.863 63H134C136.761 63 139 65.2386 139 68C139 70.7614 136.761 73 134 73ZM65 134V112.863C65 110.102 67.2385 107.863 70 107.863C72.7615 107.863 75 110.102 75 112.863V134C75 136.761 72.7615 139 70 139C67.2385 139 65 136.761 65 134ZM20.7834 27.1474L35.7294 42.0933C37.682 44.0459 40.8478 44.0459 42.8004 42.0933C44.7531 40.1407 44.7531 36.9749 42.8004 35.0222L27.8545 20.0764C25.902 18.1237 22.7361 18.1237 20.7834 20.0764C18.8308 22.029 18.8308 25.1948 20.7834 27.1474ZM111.926 118.29L96.9805 103.345C95.0278 101.392 95.0278 98.2261 96.9805 96.2734C98.9331 94.3208 102.099 94.3208 104.052 96.2734L118.997 111.219C120.95 113.172 120.95 116.338 118.997 118.29C117.045 120.243 113.879 120.243 111.926 118.29ZM110.852 20.7835L95.9066 35.7293C93.954 37.682 93.954 40.8478 95.9066 42.8004C97.8593 44.753 101.025 44.753 102.978 42.8004L117.924 27.8545C119.876 25.9019 119.876 22.7361 117.924 20.7835C115.971 18.8309 112.805 18.8309 110.852 20.7835ZM19.7096 111.926L34.6554 96.9805C36.608 95.0279 39.7739 95.0279 41.7266 96.9805C43.6791 98.9332 43.6791 102.099 41.7266 104.052L26.7806 118.997C24.828 120.95 21.6622 120.95 19.7096 118.997C17.757 117.045 17.757 113.879 19.7096 111.926Z" fill="url(#paint0_linear)"/>
<defs>
<linearGradient id="paint0_linear" x1="0.10437" y1="0.104429" x2="0.10437" y2="139" gradientUnits="userSpaceOnUse">
<stop stop-color="#FFFCC9"/>
<stop offset="1" stop-color="#FFF799"/>
</linearGradient>
</defs>
</svg>
